<svg version="1.1" viewBox="0.0 0.0 352.56430446194224 511.3910761154856" fill="none" stroke="none" stroke-linecap="square" stroke-miterlimit="10" xmlns:xlink="http://www.w3.org/1999/xlink" xmlns="http://www.w3.org/2000/svg"><clipPath id="p.0"><path d="m0 0l352.5643 0l0 511.39108l-352.5643 0l0 -511.39108z" clip-rule="nonzero"/></clipPath><g clip-path="url(#p.0)"><path fill="#000000" fill-opacity="0.0" d="m0 0l352.5643 0l0 511.39108l-352.5643 0z" fill-rule="evenodd"/><path fill="#000000" fill-opacity="0.0" d="m6.67979 -57.322834l211.08661 0l0 504.189l-211.08661 0z" fill-rule="evenodd"/><path fill="#274e13" d="m44.976665 335.67715l0 -286.32812l107.421875 0q32.8125 0 52.640625 8.6875q19.828125 8.687496 31.046875 26.765621q11.234375 18.0625 11.234375 37.78125q0 18.359383 -9.96875 34.578133q-9.953125 16.203125 -30.0625 26.171875q25.96875 7.609375 39.9375 25.96875q13.968735 18.359375 13.968735 43.359375q0 20.124985 -8.499985 37.406235q-8.5 17.28125 -21.0 26.65625q-12.5 9.375 -31.34375 14.171875q-18.84375 4.78125 -46.1875 4.78125l-109.1875 0zm37.89062 -166.01561l61.921883 0q25.1875 0 36.125 -3.328125q14.453125 -4.296875 21.78125 -14.25q7.328125 -9.96875 7.328125 -25.000008q0 -14.265625 -6.84375 -25.09375q-6.828125 -10.84375 -19.53125 -14.84375q-12.6875 -4.015625 -43.546875 -4.015625l-57.234383 0l0 86.53126zm0 132.21873l71.29688 0q18.359375 0 25.78125 -1.359375q13.078125 -2.34375 21.859375 -7.8125q8.796875 -5.46875 14.453125 -15.921875q5.671875 -10.453125 5.671875 -24.124985q0 -16.015625 -8.203125 -27.828125q-8.203125 -11.8125 -22.75 -16.59375q-14.546875 -4.796875 -41.890625 -4.796875l-66.21876 0l0 98.437485z" fill-rule="nonzero"/><path fill="#000000" fill-opacity="0.0" d="m24.32021 336.62357l165.51181 85.102356" fill-rule="evenodd"/><path stroke="#274e13" stroke-width="24.0" stroke-linejoin="round" stroke-linecap="butt" d="m24.32021 336.62357l165.51181 85.102356" fill-rule="evenodd"/><path fill="#000000" fill-opacity="0.0" d="m186.03937 431.14136l149.95276 -226.70866" fill-rule="evenodd"/><path stroke="#274e13" stroke-width="24.0" stroke-linejoin="round" stroke-linecap="butt" d="m186.03937 431.14136l149.95276 -226.70866" fill-rule="evenodd"/></g></svg>